HIERARCHY
ROOT Hips
{
	OFFSET 0.000000 0.000000 0.000000
	CHANNELS 6 Xposition Yposition Zposition Zrotation Yrotation Xrotation 
	JOINT LowerBack
	{
		OFFSET 0.000000 0.000000 0.000000
		CHANNELS 3 Zrotation Yrotation Xrotation
		JOINT Spine
		{
			OFFSET 0.028270 2.035590 -0.193380
			CHANNELS 3 Zrotation Yrotation Xrotation
			JOINT Spine1
			{
				OFFSET 0.056720 2.048850 -0.042750
				CHANNELS 3 Zrotation Yrotation Xrotation
				JOINT Neck
				{
					OFFSET 0.000000 0.000000 0.000000
					CHANNELS 3 Zrotation Yrotation Xrotation
					JOINT Neck1
					{
						OFFSET -0.054170 1.746240 0.172020
						CHANNELS 3 Zrotation Yrotation Xrotation
						JOINT Head
						{
							OFFSET 0.104070 1.761360 -0.123970
							CHANNELS 3 Zrotation Yrotation Xrotation
							End Site
							{
								OFFSET 0.000000 0.000000 0.000000
							}
						}
					}
				}
				JOINT LeftShoulder
				{
					OFFSET 0.000000 0.000000 0.000000
					CHANNELS 3 Zrotation Yrotation Xrotation
					JOINT LeftArm
					{
						OFFSET 3.362410 1.200890 -0.311210
						CHANNELS 3 Zrotation Yrotation Xrotation
						JOINT LeftForeArm
						{
							OFFSET 4.983000 -0.000000 -0.000000
							CHANNELS 3 Zrotation Yrotation Xrotation
							JOINT LeftHand
							{
								OFFSET 3.483560 -0.000000 -0.000000
								CHANNELS 3 Zrotation Yrotation Xrotation
								JOINT LeftFingerBase
								{
									OFFSET 0.000000 0.000000 0.000000
									CHANNELS 3 Zrotation Yrotation Xrotation
									JOINT LeftHandIndex1
									{
										OFFSET 0.715260 -0.000000 -0.000000
										CHANNELS 3 Zrotation Yrotation Xrotation
										End Site
										{
											OFFSET 0.000000 0.000000 0.000000
										}
									}
								}
								JOINT LThumb
								{
									OFFSET 0.000000 0.000000 0.000000
									CHANNELS 3 Zrotation Yrotation Xrotation
									End Site
									{
										OFFSET 0.000000 0.000000 0.000000
									}
								}
							}
						}
					}
				}
				JOINT RightShoulder
				{
					OFFSET 0.000000 0.000000 0.000000
					CHANNELS 3 Zrotation Yrotation Xrotation
					JOINT RightArm
					{
						OFFSET -3.136600 1.374050 -0.404650
						CHANNELS 3 Zrotation Yrotation Xrotation
						JOINT RightForeArm
						{
							OFFSET -5.241900 -0.000000 -0.000000
							CHANNELS 3 Zrotation Yrotation Xrotation
							JOINT RightHand
							{
								OFFSET -3.444170 -0.000000 -0.000000
								CHANNELS 3 Zrotation Yrotation Xrotation
								JOINT RightFingerBase
								{
									OFFSET 0.000000 0.000000 0.000000
									CHANNELS 3 Zrotation Yrotation Xrotation
									JOINT RightHandIndex1
									{
										OFFSET -0.622530 -0.000000 -0.000000
										CHANNELS 3 Zrotation Yrotation Xrotation
										End Site
										{
											OFFSET 0.000000 0.000000 0.000000
										}
									}
								}
								JOINT RThumb
								{
									OFFSET 0.000000 0.000000 0.000000
									CHANNELS 3 Zrotation Yrotation Xrotation
									End Site
									{
										OFFSET 0.000000 0.000000 0.000000
									}
								}
							}
						}
					}
				}
			}
		}
	}
}
}
MOTION
Frames: 11
Frame Time: 0.008333
-18.450943 16.096844 0.257046 90.719483 87.487051 128.143796 -8.775847 3.162175 0.650330 -3.659477 3.429962 -2.667407 -7.808337 3.346737 1.585485 9.304745 6.784674 4.208278 -5.166041 -0.452489 2.558052 0.000000 0.000000 0.000000 -0.488587 3.835262 2.350801 -26.991823 -9.008976 -8.287136 -4.375671 -18.737305 0.000466 4.670198 -0.557944 -0.024626 -0.212107 0.031250 0.000000 0.000000 0.000000 0.000000 0.000000 0.000000 0.000000 24.066704 7.135627 -1.161201 78.194350 26.186572 35.248963 1.646282 39.871177 0.003670 2.228250 11.332351 0.229854 -0.033543 -0.251186 -0.000000 0.000000 0.000000 0.000000 0.000000 0.000000 0.000000 
-18.264777 16.072465 0.262066 80.744140 87.653839 117.811327 -9.097232 3.195895 1.154736 -3.764420 3.462598 -2.564891 -7.923397 3.375300 1.543500 9.274609 7.399178 4.621330 -5.262723 -0.458754 2.634068 0.000000 0.000000 0.000000 -0.710220 3.648164 2.274701 -27.134795 -9.123154 -9.056960 -4.389635 -17.204788 0.000249 5.205680 -0.594598 -0.029061 -0.204724 0.030309 0.000000 0.000000 0.000000 0.000000 0.000000 0.000000 0.000000 24.402810 7.487883 -1.231361 78.266142 26.138936 32.613071 1.680467 36.907810 0.002367 2.059471 11.409813 0.213830 -0.033355 -0.236314 -0.000000 0.000000 0.000000 0.000000 0.000000 0.000000 0.000000 
-18.081802 16.060407 0.265840 71.253092 87.629006 107.962760 -9.443013 3.204920 1.669311 -3.869991 3.472436 -2.447579 -8.016709 3.382906 1.527862 9.201866 8.029076 5.090822 -5.349151 -0.464460 2.722507 0.000000 0.000000 0.000000 -0.963223 3.437772 2.184894 -27.413884 -9.493157 -10.020744 -4.389947 -15.325386 -0.000582 5.896101 -0.553517 -0.030709 -0.194999 0.031588 0.000000 0.000000 0.000000 0.000000 0.000000 0.000000 0.000000 24.623415 7.807211 -1.326725 78.420941 26.146395 29.457538 1.710887 33.782822 0.001037 1.824763 11.462674 0.190307 -0.032400 -0.220435 0.000000 0.000000 0.000000 0.000000 0.000000 0.000000 0.000000 
-17.901538 16.060345 0.267323 62.986452 87.451304 99.348898 -9.800955 3.200911 2.170415 -3.974242 3.471001 -2.319824 -8.087101 3.381550 1.544270 9.078817 8.647712 5.589786 -5.423880 -0.469399 2.817435 0.000000 0.000000 0.000000 -1.253125 3.235001 2.082440 -27.827407 -10.143441 -11.189446 -4.370480 -13.113557 -0.002156 6.742709 -0.428479 -0.027768 -0.182484 0.035611 0.000000 0.000000 0.000000 0.000000 0.000000 0.000000 0.000000 24.717237 8.083305 -1.438439 78.631491 26.226734 25.760854 1.736824 30.561550 -0.000256 1.473200 11.505134 0.154387 -0.029897 -0.204348 0.000000 0.000000 0.000000 0.000000 0.000000 0.000000 0.000000 
-17.723454 16.071549 0.265506 56.134641 87.173482 92.166312 -10.138266 3.190977 2.634907 -4.069516 3.464440 -2.191795 -8.133173 3.376624 1.578575 8.901824 9.263650 6.111866 -5.484229 -0.473539 2.919152 0.000000 0.000000 0.000000 -1.571938 2.977474 1.978030 -28.393634 -10.919072 -12.560583 -4.324759 -10.703434 -0.004580 7.731605 -0.203345 -0.016738 -0.166786 0.042305 0.000000 0.000000 0.000000 0.000000 0.000000 0.000000 0.000000 24.670871 8.343312 -1.549687 78.845501 26.339963 21.478380 1.755064 27.360732 -0.001449 0.967218 11.545919 0.102272 -0.025505 -0.189127 0.000000 0.000000 0.000000 0.000000 0.000000 0.000000 0.000000 
-17.546685 16.093110 0.259476 50.512573 86.847274 86.238274 -10.422815 3.177608 3.053563 -4.150041 3.454621 -2.058628 -8.161290 3.371256 1.657164 8.678738 9.811917 6.597848 -5.533937 -0.476640 3.012358 0.000000 0.000000 0.000000 -1.943756 2.816703 1.867825 -29.058144 -12.040466 -14.089888 -4.248771 -8.039316 -0.007865 8.859407 0.071735 0.001684 -0.147894 0.052231 0.000000 0.000000 0.000000 0.000000 0.000000 0.000000 0.000000 24.516111 8.530182 -1.660571 78.998057 26.537935 16.825886 1.761291 24.280628 -0.002523 0.217066 11.625989 0.024561 -0.018270 -0.175519 0.000000 0.000000 0.000000 0.000000 0.000000 0.000000 0.000000 
-17.370578 16.123912 0.248746 45.825534 86.511630 81.273034 -10.627539 3.157316 3.412787 -4.207653 3.437840 -1.932866 -8.171154 3.360067 1.751825 8.417728 10.310966 7.054688 -5.572218 -0.478939 3.101147 0.000000 0.000000 0.000000 -2.345571 2.617236 1.770368 -29.855865 -13.204044 -15.664447 -4.142294 -5.396820 -0.011969 10.087510 0.427205 0.032502 -0.126028 0.064133 0.000000 0.000000 0.000000 0.000000 0.000000 0.000000 0.000000 24.259533 8.677763 -1.751572 79.016207 26.722509 11.944538 1.749093 21.495685 -0.003476 -0.798227 11.746466 -0.082148 -0.008467 -0.164522 0.000000 0.000000 0.000000 0.000000 0.000000 0.000000 0.000000 
-17.194666 16.162892 0.232973 41.790954 86.195338 76.992328 -10.739562 3.125608 3.710403 -4.238872 3.409838 -1.816180 -8.167324 3.338676 1.862656 8.134212 10.729097 7.454629 -5.602243 -0.480482 3.179050 0.000000 0.000000 0.000000 -2.771909 2.407823 1.690521 -30.787058 -14.393310 -17.115344 -4.012402 -2.907745 -0.016691 11.367028 0.858818 0.078523 -0.102088 0.077178 0.000000 0.000000 0.000000 0.000000 0.000000 0.000000 0.000000 23.934153 8.762311 -1.819872 78.855285 26.853776 7.188361 1.715646 19.139282 -0.004345 -2.092467 11.911675 -0.221355 0.003694 -0.156441 -0.000000 0.000000 0.000000 0.000000 0.000000 0.000000 0.000000 
-17.018707 16.208970 0.212222 38.186385 85.915914 73.178457 -10.756010 3.078003 3.948516 -4.242766 3.366390 -1.709042 -8.154509 3.302828 1.989880 7.845191 11.042558 7.772969 -5.625854 -0.481234 3.240077 0.000000 0.000000 0.000000 -3.219670 2.241961 1.628605 -31.854931 -15.640477 -18.277514 -3.870806 -0.665272 -0.021685 12.622056 1.349784 0.140053 -0.077587 0.090495 0.000000 0.000000 0.000000 0.000000 0.000000 0.000000 0.000000 23.568957 8.766327 -1.869367 78.513119 26.888818 2.906794 1.664658 17.300912 -0.005170 -3.611704 12.103623 -0.389561 0.017458 -0.150999 -0.000000 0.000000 0.000000 0.000000 0.000000 0.000000 0.000000 
-16.842335 16.261149 0.186790 34.856073 85.681842 69.676456 -10.681978 3.010679 4.129498 -4.219222 3.303776 -1.616479 -8.132466 3.247859 2.117481 7.564531 11.248936 8.010081 -5.643049 -0.481313 3.285294 0.000000 0.000000 0.000000 -3.655356 2.075235 1.587330 -33.117846 -16.821907 -19.045978 -3.730857 1.175427 -0.026410 13.755828 1.886187 0.215898 -0.054293 0.102784 0.000000 0.000000 0.000000 0.000000 0.000000 0.000000 0.000000 23.181749 8.693335 -1.897771 78.015796 26.783408 -0.664142 1.605141 16.001975 -0.005972 -5.238188 12.289546 -0.574467 0.031674 -0.147679 -0.000000 0.000000 0.000000 0.000000 0.000000 0.000000 0.000000 
-16.665478 16.318603 0.157187 31.686008 85.492698 66.375772 -10.529571 2.909380 4.262328 -4.166737 3.208071 -1.543805 -8.093210 3.158382 2.225632 7.287963 11.345958 8.158353 -5.659658 -0.481002 3.313056 0.000000 0.000000 0.000000 -4.030845 1.871370 1.576567 -34.805767 -17.381508 -19.252451 -3.616271 1.433434 -0.030398 14.675664 2.897596 0.359364 -0.034093 0.112285 0.000000 0.000000 0.000000 0.000000 0.000000 0.000000 0.000000 22.787782 8.556915 -1.899060 77.403914 26.539760 -3.399925 1.552247 15.183781 -0.006686 -6.828866 12.438035 -0.758671 0.045505 -0.145880 -0.000000 0.000000 0.000000 0.000000 0.000000 0.000000 0.000000 
